<svg width="20" height="20" viewBox="0 0 20 20" fill="none" xmlns="http://www.w3.org/2000/svg">
<path fill-rule="evenodd" clip-rule="evenodd" d="M4.46781 8.22747C4.44434 8.79302 4.44434 9.46438 4.44434 10.2767C4.44434 12.6175 4.44434 13.7878 5.0061 14.6286C5.2493 14.9926 5.5618 15.3051 5.92577 15.5483C6.76651 16.11 7.9369 16.11 10.2777 16.11H13.611C15.9518 16.11 17.1222 16.11 17.9629 15.5483C18.3269 15.3051 18.6394 14.9926 18.8826 14.6286C19.4443 13.7878 19.4443 12.6175 19.4443 10.2767C19.4443 9.46438 19.4443 8.79302 19.4209 8.22747L13.0235 11.7815C12.3524 12.1544 11.5363 12.1544 10.8651 11.7815L4.46781 8.22747ZM4.97756 5.96856C4.97969 5.96972 4.98181 5.97089 4.98394 5.97207L11.9443 9.83896L18.9047 5.97207C18.9069 5.97089 18.909 5.96972 18.9111 5.96856C18.9018 5.95387 18.8923 5.93928 18.8826 5.92479C18.6394 5.56082 18.3269 5.24832 17.9629 5.00513C17.1222 4.44336 15.9518 4.44336 13.611 4.44336H10.2777C7.9369 4.44336 6.76651 4.44336 5.92577 5.00513C5.5618 5.24832 5.2493 5.56082 5.0061 5.92479C4.99642 5.93928 4.98691 5.95387 4.97756 5.96856Z" fill="#032C72"/>
</svg>
