<svg width="20" height="20" viewBox="0 0 20 20" fill="none" xmlns="http://www.w3.org/2000/svg">
<path d="M6.40034 3.16172L6.4728 3.08926C6.79824 2.76382 7.32587 2.76382 7.65131 3.08926L9.45525 4.8932C9.78069 5.21864 9.78069 5.74627 9.45526 6.07171L8.18083 7.34613C7.95798 7.56898 7.90274 7.90943 8.04368 8.19132C8.85845 9.82087 10.1798 11.1422 11.8093 11.957C12.0912 12.0979 12.4317 12.0427 12.6545 11.8198L13.9289 10.5454C14.2544 10.22 14.782 10.22 15.1074 10.5454L16.9114 12.3493C17.2368 12.6748 17.2368 13.2024 16.9114 13.5279L16.8389 13.6003C15.0795 15.3598 12.294 15.5577 10.3034 14.0648L9.99815 13.8358C8.5452 12.7461 7.25452 11.4554 6.16481 10.0025L5.93587 9.69725C4.44292 7.70665 4.64088 4.92118 6.40034 3.16172Z" fill="#032C72"/>
</svg>
